# xmcd
#
# Track frame offsets: 
#        150
#        14520
#        32147
#        58653
#        73302
#        104892
#        118463
#        134910
#        150323
#        165330
#        183449
#        200846
#        216631
#        234303
#        255318
#        274952
#
# Disc length: 3844 seconds
#
# Revision: 0
# Processed by: cddbd v1.5.2PL0 Copyright (c) Steve Scherf et al.
# Submitted via: ExactAudioCopy v0.99pb5
#
DISCID=010f0210
DTITLE=Will White - Rise Above
DYEAR=2010
DGENRE=Americana
TTITLE0=Mournin' Dove
TTITLE1=June Bug
TTITLE2=Firelight Waltz
TTITLE3=Wild Flower
TTITLE4=Fredericksburg 1862
TTITLE5=Backcountry
TTITLE6=I Wanna Meet Jesus
TTITLE7=I'll Never Do Time Again
TTITLE8=Run Chicken Run
TTITLE9=I Feel Like I'm On Holy Ground
TTITLE10=Her Soul It Does Not Fade
TTITLE11=November Waltz
TTITLE12=Climbin'
TTITLE13=Baby You Put The Hurt On Me
TTITLE14=The River
TTITLE15=Rise Above
EXTD=
EXTT0=
EXTT1=
EXTT2=
EXTT3=
EXTT4=
EXTT5=
EXTT6=
EXTT7=
EXTT8=
EXTT9=
EXTT10=
EXTT11=
EXTT12=
EXTT13=
EXTT14=
EXTT15=
PLAYORDER=
